# xmcd
#
# Track frame offsets: 
#        182
#        11807
#        23337
#        35730
#        47475
#        59835
#        74227
#        86915
#        100145
#        112057
#        123752
#        135542
#        145825
#        156810
#        171820
#        183480
#        194482
#        207155
#        219580
#        231330
#        245340
#        259457
#        271247
#        284895
#
# Disc length: 3950 seconds
#
# Revision: 7
# Processed by: cddbd v1.5.2PL0 Copyright (c) Steve Scherf et al.
# Submitted via: ExactAudioCopyFreeDBPlugin 1.0
#
DISCID=7a0f6c18
DTITLE=Muddy Waters - The Complete Muddy Waters on Chess Records, 1947
DTITLE=1967 [Charly Red Box]
DYEAR=1992
DGENRE=Blues
TTITLE0=Gypsy Woman
TTITLE1=Little Anna Mae
TTITLE2=Good Looking Woman
TTITLE3=Mean Disposition
TTITLE4=I Can't Be Satisfied
TTITLE5=I Feel Like Going Home
TTITLE6=Train Fare Home Blues
TTITLE7=Down South Blues
TTITLE8=Kind Hearted Woman
TTITLE9=Sittin' Here and Drinkin' (Whiskey Blues)
TTITLE10=You're Gonna Miss Me
TTITLE11=Mean Red Spider
TTITLE12=Stand Here Tremblin'
TTITLE13=Streamline Blues
TTITLE14=Hard Days
TTITLE15=Muddy Jumps One
TTITLE16=Little Geneva
TTITLE17=Canary Bird
TTITLE18=Burying Ground
TTITLE19=Screamin' and Cryin'
TTITLE20=Where's My Woman Been
TTITLE21=Last Time I Fool Around with You
TTITLE22=Rollin' and Tumblin', Part 1
TTITLE23=Rollin' and Tumblin', Part 2
EXTD=
EXTT0=
EXTT1=
EXTT2=
EXTT3=
EXTT4=
EXTT5=
EXTT6=
EXTT7=
EXTT8=
EXTT9=
EXTT10=
EXTT11=
EXTT12=
EXTT13=
EXTT14=
EXTT15=
EXTT16=
EXTT17=
EXTT18=
EXTT19=
EXTT20=
EXTT21=
EXTT22=
EXTT23=
PLAYORDER=
